<svg version="1.1" viewBox="0.0 0.0 200.0 30.0" fill="none" stroke="none" stroke-linecap="square" stroke-miterlimit="10" xmlns:xlink="http://www.w3.org/1999/xlink" xmlns="http://www.w3.org/2000/svg"><clipPath id="g24658d21c26_0_43.0"><path d="m0 0l200.0 0l0 30.0l-200.0 0l0 -30.0z" clip-rule="nonzero"/></clipPath><g clip-path="url(#g24658d21c26_0_43.0)"><path fill="#ffffff" d="m0 0l200.0 0l0 30.0l-200.0 0z" fill-rule="evenodd"/><path fill="#dc4b4b" d="m2.9973905 2.6981628l38.17323 0l0 14.299212l-38.17323 0z" fill-rule="evenodd"/><path fill="#e39910" d="m41.01376 2.6902761l39.086613 0l0 14.299212l-39.086613 0z" fill-rule="evenodd"/><path fill="#369136" d="m79.95602 2.690276l39.086617 0l0 14.299212l-39.086617 0z" fill-rule="evenodd"/><path fill="#e39910" d="m118.89828 2.690276l39.086617 0l0 14.299212l-39.086617 0z" fill-rule="evenodd"/><path fill="#dc4b4b" d="m157.84053 2.690276l39.08661 0l0 14.299212l-39.08661 0z" fill-rule="evenodd"/><path fill="#000000" fill-opacity="0.0" d="m153.83247 15.002643l6.2992096 0l0 15.212598l-6.2992096 0z" fill-rule="evenodd"/><path fill="#000000" d="m157.8481 24.96264l0 -1.59375l-2.890625 0l0 -0.75l3.046875 -4.328125l0.65625 0l0 4.328125l0.90625 0l0 0.75l-0.90625 0l0 1.59375l-0.8125 0zm0 -2.34375l0 -3.015625l-2.09375 3.015625l2.09375 0z" fill-rule="nonzero"/><path fill="#000000" fill-opacity="0.0" d="m114.780495 15.002643l6.2992096 0l0 15.212598l-6.2992096 0z" fill-rule="evenodd"/><path fill="#000000" d="m116.17112 23.197016l0.828125 -0.109375q0.140625 0.703125 0.46875 1.015625q0.34375 0.296875 0.828125 0.296875q0.578125 0 0.96875 -0.390625q0.40625 -0.40625 0.40625 -1.0q0 -0.5625 -0.375 -0.921875q-0.359375 -0.375 -0.921875 -0.375q-0.234375 0 -0.578125 0.09375l0.078125 -0.71875q0.09375 0 0.140625 0q0.515625 0 0.9375 -0.265625q0.421875 -0.28125 0.421875 -0.84375q0 -0.453125 -0.3125 -0.75q-0.296875 -0.296875 -0.78125 -0.296875q-0.484375 0 -0.796875 0.3125q-0.3125 0.296875 -0.40625 0.890625l-0.828125 -0.140625q0.15625 -0.828125 0.6875 -1.28125q0.53125 -0.453125 1.328125 -0.453125q0.546875 0 1.0 0.234375q0.46875 0.234375 0.703125 0.640625q0.25 0.40625 0.25 0.859375q0 0.4375 -0.234375 0.796875q-0.234375 0.34375 -0.6875 0.5625q0.59375 0.125 0.921875 0.5625q0.328125 0.421875 0.328125 1.078125q0 0.875 -0.640625 1.484375q-0.640625 0.609375 -1.609375 0.609375q-0.875 0 -1.46875 -0.515625q-0.578125 -0.53125 -0.65625 -1.375z" fill-rule="nonzero"/><path fill="#000000" fill-opacity="0.0" d="m75.94962 15.002643l6.2992096 0l0 15.212598l-6.2992096 0z" fill-rule="evenodd"/><path fill="#000000" d="m81.65275 24.18139l0 0.78125l-4.421875 0q-0.015625 -0.296875 0.09375 -0.5625q0.171875 -0.453125 0.53125 -0.890625q0.375 -0.4375 1.078125 -1.015625q1.09375 -0.890625 1.46875 -1.40625q0.390625 -0.53125 0.390625 -1.0q0 -0.484375 -0.359375 -0.8125q-0.34375 -0.34375 -0.890625 -0.34375q-0.59375 0 -0.953125 0.359375q-0.359375 0.359375 -0.359375 0.984375l-0.84375 -0.078125q0.09375 -0.953125 0.65625 -1.4375q0.5625 -0.5 1.515625 -0.5q0.953125 0 1.515625 0.53125q0.5625 0.53125 0.5625 1.328125q0 0.390625 -0.171875 0.78125q-0.15625 0.390625 -0.546875 0.828125q-0.375 0.421875 -1.25 1.15625q-0.734375 0.625 -0.953125 0.84375q-0.203125 0.21875 -0.34375 0.453125l3.28125 0z" fill-rule="nonzero"/><path fill="#000000" fill-opacity="0.0" d="m36.685432 15.002643l6.2992134 0l0 15.212598l-6.2992134 0z" fill-rule="evenodd"/><path fill="#000000" d="m41.154182 24.96264l-0.8125 0l0 -5.21875q-0.296875 0.28125 -0.78125 0.5625q-0.484375 0.28125 -0.859375 0.421875l0 -0.796875q0.6875 -0.328125 1.203125 -0.78125q0.515625 -0.453125 0.734375 -0.890625l0.515625 0l0 6.703125z" fill-rule="nonzero"/></g></svg>