<svg version="1.1" viewBox="0.0 0.0 200.0 30.0" fill="none" stroke="none" stroke-linecap="square" stroke-miterlimit="10" xmlns:xlink="http://www.w3.org/1999/xlink" xmlns="http://www.w3.org/2000/svg"><clipPath id="g24658d21c26_0_77.0"><path d="m0 0l200.0 0l0 30.0l-200.0 0l0 -30.0z" clip-rule="nonzero"/></clipPath><g clip-path="url(#g24658d21c26_0_77.0)"><path fill="#ffffff" d="m0 0l200.0 0l0 30.0l-200.0 0z" fill-rule="evenodd"/><path fill="#369136" d="m2.9973752 2.6902888l51.11811 0l0 14.299213l-51.11811 0z" fill-rule="evenodd"/><path fill="#e39910" d="m54.110237 2.6902888l68.69291 0l0 14.299213l-68.69291 0z" fill-rule="evenodd"/><path fill="#dc4b4b" d="m122.80315 2.6902888l74.20473 0l0 14.299213l-74.20473 0z" fill-rule="evenodd"/><path fill="#000000" fill-opacity="0.0" d="m115.899536 14.852699l17.543304 0l0 15.212599l-17.543304 0z" fill-rule="evenodd"/><path fill="#000000" d="m117.29016 23.047073l0.828125 -0.109375q0.140625 0.703125 0.46875 1.015625q0.34375 0.296875 0.828125 0.296875q0.578125 0 0.96875 -0.390625q0.40625 -0.40625 0.40625 -1.0q0 -0.5625 -0.375 -0.921875q-0.359375 -0.375 -0.921875 -0.375q-0.234375 0 -0.578125 0.09375l0.078125 -0.71875q0.09375 0 0.140625 0q0.515625 0 0.9375 -0.265625q0.421875 -0.28125 0.421875 -0.84375q0 -0.453125 -0.3125 -0.75q-0.296875 -0.296875 -0.78125 -0.296875q-0.484375 0 -0.796875 0.3125q-0.3125 0.296875 -0.40625 0.890625l-0.828125 -0.140625q0.15625 -0.828125 0.6875 -1.28125q0.53125 -0.453125 1.328125 -0.453125q0.546875 0 1.0 0.234375q0.46875 0.234375 0.703125 0.640625q0.25 0.40625 0.25 0.859375q0 0.4375 -0.234375 0.796875q-0.234375 0.34375 -0.6875 0.5625q0.59375 0.125 0.921875 0.5625q0.328125 0.421875 0.328125 1.078125q0 0.875 -0.640625 1.484375q-0.640625 0.609375 -1.609375 0.609375q-0.875 0 -1.46875 -0.515625q-0.578125 -0.53125 -0.65625 -1.375zm5.312866 0.21875l0.78125 -0.0625q0.09375 0.546875 0.375 0.796875q0.296875 0.25 0.734375 0.25q0.375 0 0.65625 -0.171875q0.296875 -0.171875 0.46875 -0.453125q0.1875 -0.296875 0.3125 -0.78125q0.125 -0.5 0.125 -1.015625q0 -0.046875 -0.015625 -0.15625q-0.234375 0.390625 -0.671875 0.640625q-0.421875 0.234375 -0.921875 0.234375q-0.828125 0 -1.40625 -0.59375q-0.5625 -0.609375 -0.5625 -1.59375q0 -1.015625 0.59375 -1.625q0.59375 -0.625 1.5 -0.625q0.65625 0 1.1875 0.359375q0.546875 0.34375 0.828125 1.0q0.28125 0.640625 0.28125 1.875q0 1.265625 -0.28125 2.03125q-0.28125 0.765625 -0.828125 1.15625q-0.546875 0.390625 -1.28125 0.390625q-0.78125 0 -1.28125 -0.421875q-0.5 -0.4375 -0.59375 -1.234375zm3.34375 -2.9375q0 -0.71875 -0.375 -1.125q-0.375 -0.421875 -0.890625 -0.421875q-0.546875 0 -0.953125 0.453125q-0.40625 0.4375 -0.40625 1.15625q0 0.640625 0.375 1.046875q0.390625 0.390625 0.953125 0.390625q0.578125 0 0.9375 -0.390625q0.359375 -0.40625 0.359375 -1.109375z" fill-rule="nonzero"/><path fill="#000000" fill-opacity="0.0" d="m46.988216 14.852699l24.031498 0l0 15.212599l-24.031498 0z" fill-rule="evenodd"/><path fill="#000000" d="m51.456966 24.812698l-0.8125 0l0 -5.21875q-0.296875 0.28125 -0.78125 0.5625q-0.484375 0.28125 -0.859375 0.421875l0 -0.796875q0.6875 -0.328125 1.203125 -0.78125q0.515625 -0.453125 0.734375 -0.890625l0.515625 0l0 6.703125zm2.1566162 -5.796875l0 -0.796875l4.328125 0l0 0.640625q-0.640625 0.671875 -1.265625 1.796875q-0.625 1.125 -0.96875 2.328125q-0.25 0.828125 -0.3125 1.828125l-0.84375 0q0.015625 -0.78125 0.3125 -1.890625q0.296875 -1.125 0.84375 -2.15625q0.5625 -1.046875 1.1875 -1.75l-3.28125 0z" fill-rule="nonzero"/></g></svg>