<?xml version="1.0" standalone="no"?>
<!DOCTYPE svg PUBLIC "-//W3C//DTD SVG 20010904//EN"
 "http://www.w3.org/TR/2001/REC-SVG-20010904/DTD/svg10.dtd">
<svg version="1.0" xmlns="http://www.w3.org/2000/svg"
 viewBox="0 0 498.000000 502.000000"
 preserveAspectRatio="xMidYMid meet">

<g transform="translate(0.000000,502.000000) scale(0.100000,-0.100000)"
fill="currentColor"  stroke="none">
<path d="M1370 4740 c-238 -78 -509 -174 -526 -185 -12 -8 -24 -25 -28 -38 -4
-16 35 -145 118 -395 l124 -372 -167 0 c-208 0 -251 -10 -318 -78 -63 -63
-108 -150 -140 -269 -23 -88 -26 -117 -26 -273 -1 -157 2 -185 25 -271 44
-162 107 -264 196 -316 l47 -28 238 -3 c130 -2 237 -6 237 -10 0 -4 -7 -29
-15 -56 -12 -40 -15 -121 -15 -423 l0 -373 -159 -79 c-172 -87 -226 -132 -249
-209 -15 -49 -82 -608 -82 -682 0 -103 75 -210 167 -238 21 -7 110 -19 198
-28 96 -10 162 -21 164 -28 2 -6 27 -34 56 -62 92 -91 0 -85 1241 -82 l1089 3
53 30 c50 27 76 51 112 102 13 19 33 23 180 38 134 13 175 20 217 41 66 32
109 83 130 154 15 52 14 66 -22 380 -20 179 -43 346 -51 371 -27 85 -69 120
-250 211 l-164 83 0 388 c0 322 -3 394 -15 424 -8 19 -15 37 -15 39 0 2 100 4
223 4 260 0 292 7 360 75 223 223 231 836 14 1072 -76 82 -94 87 -323 91
l-202 4 124 371 c77 231 122 381 119 394 -3 13 -16 30 -29 38 -37 24 -557 195
-594 195 -84 0 -144 -56 -192 -182 -18 -45 -86 -222 -151 -393 -66 -170 -130
-336 -142 -367 l-22 -58 -117 0 -118 0 0 25 c0 14 -11 37 -25 50 -24 25 -26
25 -203 25 -166 0 -181 -2 -206 -21 -17 -14 -26 -30 -26 -50 l0 -29 -132 0
-133 0 -130 338 c-198 517 -221 572 -252 604 -49 52 -124 71 -193 48z m87
-152 c7 -10 259 -657 319 -820 6 -16 -3 -18 -89 -18 l-94 0 -32 88 c-32 90
-51 112 -96 112 -28 0 -75 -40 -75 -63 0 -8 9 -40 20 -72 11 -32 20 -60 20
-62 0 -2 -48 -2 -107 -1 l-106 3 -114 340 c-62 187 -112 344 -110 349 3 9 419
155 443 156 6 0 16 -6 21 -12z m2183 -62 c117 -40 215 -77 217 -82 2 -6 -48
-163 -110 -349 l-114 -340 -107 -3 -108 -3 7 23 c4 13 14 38 21 57 20 48 17
68 -11 96 -31 32 -75 33 -102 3 -12 -13 -33 -58 -48 -100 l-28 -78 -94 0 c-86
0 -95 2 -89 18 68 182 312 810 319 820 5 6 15 12 21 12 6 -1 108 -34 226 -74z
m-1120 -1111 l0 -285 -80 0 -80 0 0 285 0 285 80 0 80 0 0 -285z m-312 -52 l2
-232 -363 -3 -364 -3 -49 -30 c-55 -35 -89 -79 -105 -139 -11 -39 -7 -94 17
-258 l6 -38 -314 0 c-364 0 -353 -3 -406 98 -57 108 -75 196 -75 372 0 127 4
169 21 232 33 122 88 211 142 231 8 3 346 5 750 4 l735 -2 3 -232z m1702 224
c0 -4 -8 -24 -19 -45 -56 -110 -86 -286 -78 -459 6 -143 23 -232 62 -325 15
-35 29 -71 32 -80 5 -17 -8 -18 -187 -18 l-193 0 7 53 c27 219 20 272 -47 344
-64 70 -86 73 -479 73 l-338 0 0 228 c0 126 2 231 4 233 8 8 1236 4 1236 -4z
m293 -24 c38 -40 83 -146 102 -238 20 -95 22 -281 5 -375 -22 -124 -79 -239
-136 -276 -75 -50 -173 101 -205 317 -14 100 -7 279 16 364 37 141 101 235
159 235 22 0 41 -9 59 -27z m-849 -593 c43 -16 50 -47 38 -157 -57 -488 -71
-584 -95 -636 -31 -69 -86 -123 -156 -156 -54 -25 -64 -26 -263 -29 l-208 -3
0 70 c0 138 -11 144 -250 139 -167 -3 -172 -4 -191 -27 -15 -18 -19 -39 -19
-103 l0 -79 -212 3 c-210 3 -214 3 -270 31 -69 34 -130 101 -157 171 -12 33
-32 160 -55 356 -20 168 -39 318 -42 333 -7 33 16 74 49 87 31 12 1799 13
1831 0z m-1980 -507 c3 -21 10 -81 16 -133 20 -170 51 -249 128 -333 60 -63
118 -103 190 -130 50 -19 86 -22 277 -27 l220 -5 3 -82 c3 -75 5 -84 30 -103
25 -20 36 -21 210 -18 179 3 184 4 203 27 15 18 19 39 19 102 l0 79 204 0
c175 0 213 3 268 20 147 45 262 155 313 299 8 24 23 107 32 185 9 77 20 145
24 150 4 4 24 -8 46 -27 l38 -35 0 -980 0 -980 -25 -27 c-54 -58 11 -55 -1132
-55 -1192 0 -1102 -6 -1145 80 l-23 44 0 933 c0 1021 -2 981 58 1030 15 13 30
23 34 23 3 0 9 -17 12 -37z m1144 -550 l-3 -128 -77 -3 -78 -3 0 131 0 130 80
0 81 0 -3 -127z m-1400 -1358 c-2 -1 -63 4 -136 12 -224 23 -218 6 -168 427
24 210 42 329 52 344 8 12 67 49 132 81 l117 59 3 -461 c1 -253 1 -461 0 -462z
m2763 864 c99 -50 123 -67 134 -93 8 -17 26 -137 40 -266 15 -129 31 -270 36
-313 16 -138 -9 -161 -196 -180 -71 -8 -133 -12 -137 -10 -9 5 -11 923 -2 923
3 0 59 -28 125 -61z"/>
<path d="M1283 4325 c-36 -25 -37 -59 -2 -156 17 -48 40 -96 50 -105 25 -23
74 -22 99 1 27 25 26 68 -6 157 -38 106 -86 141 -141 103z"/>
<path d="M3477 4318 c-26 -24 -79 -162 -79 -205 0 -57 81 -89 122 -47 20 20
80 175 80 206 0 27 -45 68 -74 68 -14 0 -36 -10 -49 -22z"/>
<path d="M1612 1347 c-21 -22 -22 -32 -22 -209 l0 -187 26 -20 c27 -21 33 -21
826 -21 l799 0 24 25 c25 24 25 26 25 205 0 179 0 181 -25 205 l-24 25 -804 0
-804 0 -21 -23z m1528 -207 l0 -80 -700 0 -700 0 0 80 0 80 700 0 700 0 0 -80z"/>
</g>
</svg>
