<?xml version="1.0" encoding="UTF-8"?>
<svg viewBox="0 0 24 24" version="1.1" xmlns="http://www.w3.org/2000/svg" xmlns:xlink="http://www.w3.org/1999/xlink">
    <!-- Generator: Sketch 61.2 (89653) - https://sketch.com -->
    <title>Icon/External Link</title>
    <desc>Created with Sketch.</desc>
    <g id="Icon/External-Link" stroke="none" stroke-width="1" fill="none" fill-rule="evenodd">
        <polygon id="24pt-Bounding-Box" opacity="0" fill-rule="nonzero" points="0 0 24 0 24 24 0 24"></polygon>
        <path d="M11.9999997,3.00000015 C12.5522849,3.00000015 12.9999997,3.44771515 12.9999997,4.00000015 C12.9999997,4.55228515 12.5522849,5.00000015 11.9999997,5.00000015 L11.9999997,5.00000015 L5.99999974,5.00000015 C5.44771491,5.00000015 4.99999974,5.44771515 4.99999974,6.00000015 L4.99999974,6.00000015 L4.99999974,18.0000002 L4.99999974,18.0000002 L5.00672747,18.1166213 C5.06449257,18.61396 5.48716383,19.0000002 5.99999974,19.0000002 L5.99999974,19.0000002 L17.9999997,19.0000002 C18.552285,19.0000002 18.9999997,18.552285 18.9999997,18.0000002 L18.9999997,18.0000002 L18.9999997,12.0000002 L18.9999997,12.0000002 L19.0067275,11.883379 C19.0644926,11.38604 19.4871639,11.0000002 19.9999997,11.0000002 L19.9999997,11.0000002 L20.1166209,11.0067279 C20.6139597,11.0644929 20.9999997,11.4871637 20.9999997,12.0000002 L20.9999997,12.0000002 L20.9999997,18.0000002 C20.9999997,19.6568497 19.6568496,21.0000002 17.9999997,21.0000002 L17.9999997,21.0000002 L5.99999974,21.0000002 C4.34314974,21.0000002 2.99999974,19.6568497 2.99999974,18.0000002 L2.99999974,18.0000002 L2.99999974,6.00000015 L2.99999974,6.00000015 L3.00509245,5.82372779 C3.09633915,4.24892407 4.40232295,3.00000015 5.99999974,3.00000015 L5.99999974,3.00000015 Z M19.9999982,2.99999849 C20.5522832,2.99999849 20.9999982,3.44771349 20.9999982,3.99999849 L20.9999982,3.99999849 L20.9999982,7.99999849 C20.9999982,8.55228349 20.5522832,8.99999849 19.9999982,8.99999849 L19.9999982,8.99999849 L19.8833771,8.99327076 C19.3860382,8.93550568 18.9999983,8.51283456 18.9999983,7.99999849 L18.9999983,7.99999849 L18.9999983,6.41999834 L12.7099983,12.6999983 C12.7080734,12.701939 12.7061406,12.7038718 12.7041999,12.7057967 C12.3120799,13.0947163 11.6789199,13.0921203 11.2899999,12.6999983 L11.2899999,12.6999983 L11.2870949,12.6971051 C10.895282,12.30208 10.897878,11.66892 11.29,11.28 L11.29,11.28 L17.58,4.99999849 L15.9999982,4.99999849 C15.4477132,4.99999849 14.9999982,4.55228349 14.9999982,3.99999849 C14.9999982,3.44771349 15.4477132,2.99999849 15.9999982,2.99999849 L15.9999982,2.99999849 Z" id="Fill" fill="currentColor"></path>
    </g>
</svg>
