<svg xmlns="http://www.w3.org/2000/svg" viewBox="0 0 24 24">
    <path fill="currentColor" fill-rule="evenodd" d="M10.999 11.993L8.6 13.8a1 1 0 0 1-.471.192L8 14a1 1 0 0 1-.724-.31L7.2 13.6a1 1 0 0 1 .104-1.319L7.4 12.2l4-3a1 1 0 0 1 1.18 0l4 2.82a1 1 0 0 1 .305 1.283l-.065.107a1 1 0 0 1-1.4.24l-2.424-1.707L13 12v8a1 1 0 0 1-.883.993L12 21a1 1 0 0 1-.993-.883L11 20l-.001-8.007zM19 4a1 1 0 0 1 1 1v2a1 1 0 0 1-.883.993L19 8a1 1 0 0 1-1-1V5.999L6 6v1a1 1 0 0 1-.883.993L5 8a1 1 0 0 1-1-1V5a1 1 0 0 1 .883-.993L5 4h14z"/>
</svg>
